<svg xmlns="http://www.w3.org/2000/svg" id="Capa_1" height="512" viewBox="0 0 512 512" width="512"><g><path d="m466.764 333.045-27.086-27.088c-7.551-7.548-19.619-7.861-27.567-.971l-40.368-40.372c-3.285-3.285-5.097-7.833-4.97-12.477.697-14.592 1.025-30.881-4.2-45.49l-16.829-49.971c-1.015-3.013-1.533-6.151-1.54-9.3l.059-40.894c-.426-13.676-9.981-25.517-25.022-27.004-18.671-2.237-36.395 10.418-40.596 29.137-3.454 11.672-5.246 25.829-4.072 39.677l3.4 41.009v126.64h-176.347v-17.778c13.405-.431 28.151-11.253 31.565-25.805 2.679-10.587.361-22.998-7.788-32.021 8.199-4.035 16.136-13.217 18.546-23.106 2.772-10.799.449-23.762-7.702-33.086 8.42-3.885 17.041-13.198 19.487-23.574 5.146-17.778-6.523-39.893-25.962-44.446 0 0-27.606-7.23-28.146-7.346v-65.778h18.681c4.142 0 7.5-3.357 7.5-7.5s-3.358-7.5-7.5-7.5h-18.68c.005-7.169 5.835-13.001 13-13.001h150.336c7.171 0 13.005 5.832 13.01 13.001h-122.402c-4.142 0-7.5 3.357-7.5 7.5s3.358 7.5 7.5 7.5h122.403v21.43c0 4.143 3.358 7.5 7.5 7.5s7.5-3.357 7.5-7.5v-36.42c0-15.446-12.566-28.011-28.011-28.011h-150.336c-14.994 0-27.271 11.851-27.967 26.682-12.362-5.501-27.383-3.199-37.506 6.924-12.401 11.862-13.43 34.678-.002 47.601l29.969 29.969c-9.694 4.359-17.417 12.892-20.319 23.949-3.35 12.76.536 25.747 9.105 34.597-8.037 4.153-15.575 13.102-17.999 22.822-2.469 9.403-1.127 19.205 3.776 27.601 2.126 3.639 4.812 6.823 7.937 9.465-7.176 4.704-12.29 11.797-14.484 20.158-4.853 18.48 6.236 37.464 24.718 42.316l14.773 3.878v49.452c0 15.439 12.561 28.001 28.001 28.001h58.274c8.3 5.877 24.702 10.253 34.48 13.189 9.868 2.983 18.93 8.407 26.208 15.686l40.558 40.559-7.492 7.492c-7.896 7.896-7.896 20.745 0 28.643l27.085 27.085c3.825 3.826 8.911 5.933 14.321 5.933s10.496-2.106 14.32-5.932l104.302-104.302c2.929-2.93 2.929-7.678 0-10.607-2.929-2.928-7.678-2.928-10.606 0l-104.305 104.301c-.992.992-2.311 1.538-3.713 1.538-1.403 0-2.722-.546-3.714-1.539l-27.086-27.086c-2.048-2.048-2.048-5.38 0-7.428l12.795-12.795s.001 0 .001-.001 0 0 .001-.001l131.585-131.586c2.048-2.048 5.381-2.049 7.429-.001l27.086 27.088c.898 1.25 2.836 3.736 0 7.428l-14.856 14.857c-2.929 2.929-2.929 7.678 0 10.606 2.93 2.928 7.677 2.929 10.607-.001l14.856-14.856c6.983-6.801 8.378-20.401-.001-28.64zm-412.475-275.638c0-4.984 1.941-9.669 5.469-13.192 6.895-7.034 19.658-7.217 26.868.493v52.76l-26.871-26.871c-3.525-3.522-5.466-8.205-5.466-13.19zm19.019 81.526c2.418-9.286 11.863-16.507 21.829-15.935 1.427.076 30.826 7.636 30.826 7.636 10.508 2.562 18.233 14.278 15.262 26.13-2.562 10.51-14.277 18.229-26.13 15.263l-26.525-6.964c-10.506-2.563-18.232-14.278-15.262-26.13zm-8.893 57.419c3.21-10.807 14.085-18.335 26.129-15.263l23.634 6.205c10.508 2.562 18.233 14.278 15.262 26.13-2.562 10.509-14.277 18.231-26.13 15.263l-23.634-6.204c-11.41-2.997-18.258-14.719-15.261-26.131zm-2.773 57.223c2.057-7.63 9.351-14.548 18.976-14.671 1.675 0 24.046 5.646 24.046 5.646 9.181 2.281 17.006 12.994 14.018 24-2.282 9.181-12.994 17.005-24 14.018l-19.021-4.993c-10.481-2.753-16.77-13.518-14.019-24zm39.984 91.838v-14.471h80.674v8.16c0 4.143 3.358 7.5 7.5 7.5s7.5-3.357 7.5-7.5v-8.16h80.674v14.471c0 7.169-5.836 13.001-13.011 13.001h-150.336c-7.169 0-13.001-5.832-13.001-13.001zm142.569 46.27c-8.145-8.145-18.095-14.408-28.95-18.269h49.717c15.445 0 28.011-12.562 28.011-28.001v-156.466c0-.163-.014-.323-.024-.483-.003-.046-.001-.092-.004-.138l-.006-.078c-.003-.033-.005-.066-.008-.099l-3.403-41.095c-.834-10.085.051-22.632 3.507-34.185 1.416-8.094 8.658-16.739 18.071-18.306 7.292-1.542 17.867 1.476 18.157 11.906l-.059 40.888c0 .007.001.013.001.02v.007c.011 4.796.793 9.533 2.324 14.08l16.829 49.971c4.299 10.894 4.073 27.948 3.422 40.293-.239 8.745 3.172 17.308 9.358 23.494l19.425 19.426c.006.006.012.01.018.016l20.872 20.878-116.7 116.699z"></path><circle cx="317.502" cy="454.957" r="7.397"></circle></g></svg>